<?xml version="1.0" encoding="utf-8"?>
<!-- Generator: Adobe Illustrator 23.0.1, SVG Export Plug-In . SVG Version: 6.00 Build 0)  -->
<svg version="1.1" id="Layer_1" xmlns="http://www.w3.org/2000/svg" xmlns:xlink="http://www.w3.org/1999/xlink" x="0px" y="0px"
	 viewBox="0 0 485.7 107.9" style="enable-background:new 0 0 485.7 107.9;" xml:space="preserve">
<style type="text/css">
	.st0{stroke:#000000;stroke-width:2;stroke-miterlimit:10;}
</style>
<path class="st0" d="M3.9,84.4c-0.7-0.7-1-1.6-1-2.7c0-0.4,0.1-1,0.4-1.7l21.2-50c0.4-1,1.1-1.8,1.9-2.4c0.8-0.6,1.8-1,2.9-1H30
	c1.2,0,2.1,0.3,2.9,1c0.8,0.6,1.4,1.5,1.9,2.4L56,80c0.3,0.7,0.4,1.2,0.4,1.7c0,1.1-0.3,1.9-1,2.7c-0.7,0.7-1.6,1.1-2.7,1.1
	c-0.8,0-1.5-0.2-2.1-0.6c-0.6-0.4-1.1-1-1.5-1.7l-5.4-12.9H15.5l-5.4,12.9c-0.3,0.7-0.8,1.3-1.5,1.7c-0.6,0.4-1.3,0.6-2.1,0.6
	C5.5,85.4,4.6,85.1,3.9,84.4z M18.4,63.3h22.4l-11.2-27L18.4,63.3z"/>
<path d="M110.3,59.3c-1.8-1.9-2.9-3.5-5.5-4.5c1.7-1,3.1-2.4,4.2-4c1.6-2.3,2.5-5.2,2.5-8.6c0-4.9-1.8-8.8-5.2-11.7
	c-3.4-2.9-8.2-4.3-14.4-4.3H72.4c-1.3,0-2.5,0.5-3.4,1.4c-0.9,0.9-1.4,2.1-1.4,3.4v50.4c0,1.3,0.5,2.5,1.4,3.4
	c0.9,0.9,2,1.4,3.4,1.4h20.1c7.6,0,12.2-1.5,15.8-4.5c3.7-3.1,5.5-7.3,5.5-12.7C113.8,65,112.6,61.8,110.3,59.3z M103.5,68.4
	c0,2.7,0,4.8-2,6.3c-2.1,1.5-4.7,2.3-9.8,2.3H77.2V60h14.6C101,60,103.5,62.7,103.5,68.4z M77.2,51.2v-16h14.2
	c3.5,0,6.2,0.7,8.2,2.1c1.9,1.4,2.8,3.1,2.8,5.4c0,2.7-0.9,4.7-2.6,6.2c-1.8,1.5-5.1,2.3-9.7,2.3H77.2z"/>
<path d="M225.1,27.1c-0.9-0.9-2.1-1.4-3.4-1.4c-1.3,0-2.5,0.5-3.4,1.4c-0.9,0.9-1.4,2.1-1.4,3.4v33c0,3.1-0.7,5.8-2.1,7.9
	c-1.4,2.2-3.3,3.8-5.6,4.9c-2.3,1.1-4.9,1.6-7.5,1.6c-2.7,0-5.2-0.6-7.5-1.6c-2.3-1.1-4.2-2.7-5.6-4.9c-1.4-2.1-2.1-4.8-2.1-7.9
	l-1-18.4c0-1.3-2.5-16.1-3.4-17c-0.9-0.9-0.1-1.4-1.4-1.4c-1.3,0-2.5,0.5-3.4,1.4c-0.9,0.9-1.4,1.1-1.4,2.4l1,32.8
	c0,5.1,1.2,9.5,3.7,13.1c2.4,3.5,5.6,6.2,9.4,7.9c3.8,1.7,7.7,2.6,11.8,2.6s8-0.9,11.8-2.6c3.8-1.7,7-4.4,9.4-7.9
	c2.4-3.6,3.7-7.9,3.7-13.1V30.5C226.5,29.2,226,28,225.1,27.1z"/>
<path class="st0" d="M241.3,84.4c-0.7-0.7-1.1-1.6-1.1-2.7V30.9c0-1.1,0.4-2,1.1-2.7c0.7-0.7,1.6-1.1,2.7-1.1h19.3
	c7.5,0,13.2,1.5,16.9,4.6c3.8,3.1,5.6,7.2,5.6,12.2c0,3.3-0.9,6.3-2.8,9.1c-1.9,2.7-4.6,4.7-8.1,5.9c4,1.1,6.7,3.5,8.2,7.4
	c1.5,3.9,2.2,7.7,2.2,11.5v3.8c0,1.1-0.4,1.9-1.1,2.7c-0.7,0.7-1.6,1.1-2.7,1.1c-1.2,0-2.1-0.3-2.8-1c-0.7-0.7-1-1.6-1-2.7v-2.5
	c0-2.8-0.2-5.3-0.7-7.7c-0.5-2.4-1.7-4.5-3.6-6.3c-1.9-1.9-4.7-2.8-8.5-2.8h-17.2v19.3c0,1.1-0.4,1.9-1.1,2.7
	c-0.7,0.7-1.6,1.1-2.7,1.1C242.9,85.4,242,85.1,241.3,84.4z M262.8,55.3c4.8,0,8.5-0.9,11.3-2.8c2.8-1.9,4.2-4.5,4.2-8
	c0-3.3-1.2-5.9-3.6-7.6c-2.4-1.8-6.5-2.7-12.3-2.7h-14.6v21.1H262.8z"/>
<path class="st0" d="M300.4,83.9c-0.7-0.7-1.1-1.6-1.1-2.7V30.9c0-1.1,0.4-2,1.1-2.7c0.7-0.7,1.6-1.1,2.7-1.1h16.7
	c6.3,0,11.7,1.4,16.1,4.2c4.4,2.8,7.7,6.4,9.9,10.8c2.2,4.4,3.3,9.1,3.3,13.9c0,4.9-1.1,9.5-3.3,13.9c-2.2,4.4-5.5,8-9.9,10.8
	c-4.4,2.8-9.8,4.2-16.1,4.2H303C302,85,301.1,84.7,300.4,83.9z M318.8,78c4.5,0,8.5-0.9,12-2.8c3.4-1.9,6.1-4.4,8-7.7
	c1.9-3.3,2.8-7.1,2.8-11.4c0-4.3-0.9-8.1-2.8-11.4c-1.9-3.3-4.5-5.9-8-7.7c-3.4-1.9-7.4-2.8-12-2.8h-12V78H318.8z"/>
<path class="st0" d="M362.7,84.4c-0.7-0.7-1.1-1.6-1.1-2.7V30.5c0-1.1,0.4-2,1.1-2.7c0.7-0.7,1.6-1.1,2.7-1.1c1.1,0,2,0.4,2.7,1.1
	s1.1,1.6,1.1,2.7v51.2c0,1.1-0.4,1.9-1.1,2.7c-0.7,0.7-1.6,1.1-2.7,1.1C364.3,85.4,363.4,85.1,362.7,84.4z"/>
<path class="st0" d="M399.8,84.4c-0.7-0.7-1.1-1.6-1.1-2.7V34.1h-16.9c-1,0-1.8-0.3-2.5-1s-1-1.5-1-2.5c0-1,0.3-1.8,1-2.5
	c0.7-0.7,1.5-1,2.5-1h41.3c1,0,1.8,0.3,2.5,1c0.7,0.7,1,1.5,1,2.5c0,1-0.3,1.8-1,2.5c-0.7,0.7-1.5,1-2.5,1h-16.8v47.6
	c0,1.1-0.4,1.9-1.1,2.7c-0.7,0.7-1.6,1.1-2.7,1.1C401.4,85.4,400.5,85.1,399.8,84.4z"/>
<path class="st0" d="M455.2,84.4c-0.7-0.7-1.1-1.6-1.1-2.7V60.5l-19.8-27.8c-0.4-0.7-0.7-1.5-0.7-2.2c0-1.1,0.3-2,1-2.7
	c0.7-0.7,1.6-1.1,2.6-1.1c1.4,0,2.5,0.6,3.3,1.9l17.3,25.2l17.3-25.2c0.8-1.3,1.9-1.9,3.3-1.9c1.1,0,1.9,0.4,2.7,1.1
	c0.7,0.7,1.1,1.6,1,2.7c0,0.8-0.2,1.5-0.7,2.2l-19.9,27.8v21.2c0,1.1-0.4,1.9-1.1,2.7c-0.7,0.7-1.6,1.1-2.7,1.1
	C456.9,85.4,456,85.1,455.2,84.4z"/>
<g>
	<path d="M128,104.1c-3.6-1.2-6-3-10.7-6.2C112,94.3,108.7,87.6,92,86l21.7-18.4l0.3,4c0.4,4.2,0.5,7.3,2.8,10.7
		c0.8,1.2,2.1,3.1,3.3,4.2c2.9,2.7,5.8,4.5,10.4,6.2c6.6,2.3,12,2.6,16.2,0.8c4.3-1.8,7.1-5.1,8.6-10c1.2-3.9,1.2-7.3,0.2-10.4
		c-1-3-3.3-5.8-6.8-8.4c-2.5-1.8-4.8-3.5-6.9-4.8c-2.1-1.4-4.7-3.1-7.9-5.3c-2.8-2-5.3-4-7.3-6.2c-2-2.2-3.7-4.7-4.9-7.6
		c-1.2-2.8-1.9-5.8-2-9c-0.2-3.2,0.3-5.7,1.5-9.5c2.4-7.8,7.2-13.4,14.4-16.7c7.3-3.3,17-4.3,24-2.3s12,5.6,14.2,7.9
		c7.9,8.5,11.4,19.8,11.5,33.9l-5.6-9.8l-2.9,26.5c-0.2-10.7-1.5-26.8-4.7-34.1c-3.2-7.4-8-10.3-13.1-12.1c-5-1.7-12.3-1.7-16.7,0.5
		c-4.4,2.1-7.1,4.7-8.4,9.2c-1.2,4.1-1.2,6.7,0,9.9c1.3,3.1,3.6,5.9,7.1,8.4c2.3,1.6,5.1,3.6,8.5,5.8c3.4,2.2,6.1,4.1,8.3,5.8
		c5.6,4.2,9.1,8.9,10.7,14c1.6,5.1,1.5,10.7-0.3,16.7c-1.1,3.8-3,7.2-5.5,10.4c-2.5,3.2-5.5,5.6-8.8,7.2c-3.7,1.8-7.6,2.8-11.7,3.1
		C138.2,106.8,133.4,106,128,104.1z"/>
</g>
</svg>
