<?xml version="1.0" encoding="utf-8"?>
<!-- Generator: Adobe Illustrator 23.0.1, SVG Export Plug-In . SVG Version: 6.00 Build 0)  -->
<svg version="1.1" id="Layer_1" xmlns="http://www.w3.org/2000/svg" xmlns:xlink="http://www.w3.org/1999/xlink" x="0px" y="0px"
	 viewBox="0 0 484 104.6" style="enable-background:new 0 0 484 104.6;" xml:space="preserve">
<path d="M0,84.4L22.1,19h10.7l22.1,65.4h-9.2l-5.9-18.3h-25L8.8,84.4H0z M37.3,58.7L27.2,27.8L17.1,58.7H37.3z"/>
<path d="M105.4,64.3c0,3.3-0.6,6.1-1.8,8.6c-1.2,2.5-2.9,4.5-5,6.2c-2.5,1.9-5.1,3.3-7.9,4.1c-2.8,0.8-6.4,1.2-10.9,1.2H61V19h17.4
	c4.7,0,8.2,0.2,10.5,0.5s4.6,1,6.7,2.2c2.3,1.3,4.1,2.9,5.1,4.9c1.1,2,1.6,4.4,1.6,7.2c0,3.1-0.8,5.8-2.4,8.3
	c-1.6,2.4-3.9,4.3-6.7,5.7v0.4c3.9,1.1,6.9,3,9.1,5.8C104.4,56.6,105.4,60.1,105.4,64.3z M93.3,35c0-1.6-0.3-3-0.8-4.1
	c-0.5-1.2-1.4-2.1-2.5-2.7c-1.4-0.8-3-1.3-4.7-1.5c-1.7-0.2-4.1-0.3-7.2-0.3h-8.3v19.2h9.9c2.7,0,4.7-0.1,6-0.4
	c1.3-0.3,2.6-0.9,4-1.7c1.3-0.8,2.3-2,2.8-3.3C93,38.7,93.3,37,93.3,35z M96.4,64.7c0-2.5-0.4-4.5-1.1-6.1c-0.7-1.6-2.1-3-4.3-4.1
	c-1.4-0.7-2.9-1.2-4.5-1.4c-1.6-0.2-3.9-0.3-6.9-0.3h-9.9V77h7.1c3.8,0,6.8-0.2,9-0.5s4.1-1.1,5.8-2.2c1.6-1.1,2.8-2.4,3.6-3.9
	C96,68.9,96.4,67,96.4,64.7z"/>
<path d="M197.1,84.8c-3.8,0-7.2-0.5-10.1-1.5s-5.3-2.5-7.3-4.5c-2.3-2.3-3.9-5-4.8-8.2c-0.9-3.2-1.4-7.1-1.4-11.8V30
	c0,0,0-0.1,0-0.1l0.3-2.6c0.2-1.6-7.1-20.5,0.6-8.4c7.7,12.1,7.8,29.8,7.8,29.8c0,0.1,0,0.2,0,0.4l0,9.8c0,3,0.2,5.6,0.6,7.6
	s1.1,3.9,2.2,5.6c1.2,1.8,2.8,3.1,4.8,4c2,0.9,4.5,1.4,7.4,1.4c2.7,0,5.1-0.5,7.3-1.4c2.1-0.9,3.8-2.2,4.9-4
	c1.1-1.7,1.8-3.5,2.2-5.5c0.4-2,0.6-4.5,0.6-7.4V19.4c0-0.8,0.6-1.4,1.4-1.4h5.8c0.8,0,1.4,0.6,1.4,1.4v39.4c0,4.5-0.5,8.4-1.4,11.7
	c-0.9,3.3-2.5,6-4.9,8.3c-2.1,2-4.5,3.5-7.3,4.5C204.5,84.3,201.1,84.8,197.1,84.8z"/>
<path d="M283.9,83.4h-11.3l-20.7-26h-9.9v26h-8.7V18h16.9c3.8,0,6.9,0.2,9.4,0.6c2.5,0.4,4.9,1.4,7.2,2.9c2.3,1.5,4.1,3.4,5.4,5.7
	c1.3,2.3,2,5.2,2,8.6c0,4.8-1.2,8.8-3.6,12c-2.4,3.2-5.7,5.6-9.9,7.2L283.9,83.4z M265.1,36.4c0-1.9-0.3-3.6-1-5.1
	c-0.7-1.5-1.7-2.7-3.1-3.6c-1.2-0.8-2.7-1.4-4.3-1.7c-1.6-0.3-3.7-0.5-6.1-0.5h-8.6v24.7h7.6c2.5,0,4.7-0.2,6.7-0.7s3.7-1.3,5.1-2.7
	c1.3-1.2,2.2-2.7,2.8-4.4C264.8,40.7,265.1,38.7,265.1,36.4z"/>
<path d="M340.7,50.8c0,6-1.2,11.4-3.6,16.2c-2.4,4.8-5.7,8.6-9.7,11.3c-3.3,2.1-6.7,3.5-10.1,4.2c-3.4,0.7-7.8,1.1-13.1,1.1h-15.1
	V18H304c6.2,0,11,0.5,14.5,1.4c3.5,0.9,6.5,2.2,8.9,3.8c4.2,2.8,7.5,6.5,9.8,11.1S340.7,44.4,340.7,50.8z M331.6,50.6
	c0-5-0.8-9.3-2.5-12.9s-4.1-6.3-7.4-8.3c-2.3-1.4-4.8-2.4-7.4-3s-5.9-0.9-9.8-0.9h-6.6v50.5h6.6c3.9,0,7.3-0.3,10.2-0.9
	s5.6-1.8,8-3.4c3-2.1,5.3-4.8,6.8-8.2C330.9,60,331.6,55.7,331.6,50.6z"/>
<path d="M371,83.4h-25.4v-6.7h8.3V24.7h-8.3V18H371v6.7h-8.3v52.1h8.3V83.4z"/>
<path d="M398,83.4V25.7h-22V18h52.6v7.7h-22v57.7H398z"/>
<path d="M484,18l-22.1,36.5v29h-8.7v-28L431.1,18h9.7l16.9,28.9L474.8,18H484z"/>
<g>
	<path d="M119.9,102.1c-7-2.3-12.8-5-17.2-8c-4.4-3.1-11.7-9.9-21.7-9.7l24.5-19.5l0.4,4.7c0.4,4.2,1.6,8.3,4.1,11.7
		c0.8,1.2,2.3,3.1,3.6,4.2c3.2,2.7,4.1,3.5,9.1,5.2c7.1,2.3,13,2.6,17.6,0.8c4.6-1.8,7.7-5.1,9.3-10c1.3-3.9,1.3-7.3,0.2-10.4
		c-1.1-3-3.6-5.8-7.3-8.4c-2.7-1.8-5.2-3.5-7.5-4.8c-2.3-1.4-5.1-3.1-8.6-5.3c-3.1-2-5.7-4-7.9-6.2c-2.2-2.2-4-4.7-5.3-7.6
		c-1.3-2.8-2-5.8-2.2-9c-0.2-3.2,0.4-6.7,1.6-10.5c2.6-7.8,7.8-13.4,15.6-16.7c7.8-3.3,16.5-3.4,26-0.3c5.4,1.8,9.9,5,13.7,8.5
		c7.2,6.7,6.9,9.9,9.8,14.8l-1.8,7.7L173.4,59c-0.3-10.7-3.2-29.8-9-36.3c-3.7-4.1-7.8-7.4-13.1-9.1c-6-2-11.3-2.1-15.9-0.5
		c-4.6,1.6-7.6,4.7-9.1,9.2c-1.3,4.1-1.3,7.7,0,10.9c1.4,3.1,3.9,5.9,7.7,8.4c2.5,1.6,5.6,3.6,9.2,5.8c3.6,2.2,6.6,4.1,9,5.8
		c6,4.2,9.9,8.9,11.6,14c1.7,5.1,1.6,10.7-0.4,16.7c-1.2,3.8-3.2,7.2-6,10.4c-2.7,3.2-5.9,5.6-9.5,7.2c-4,1.8-8.3,2.8-12.7,3.1
		C130.9,104.8,125.8,104,119.9,102.1z"/>
</g>
</svg>
